PathFileType	4	(X/Y/Z)	pose_F01_0-96.trc
DataRate	CameraRate	NumFrames	NumMarkers	Units	OrigDataRate	OrigDataStartFrame	OrigNumFrames
30	30	7	21	m	30	12	96
Frame#	Time	CHip			RHip			RKnee			RAnkle			RBigToe			RSmallToe			RHeel			LHip			LKnee			LAnkle			LBigToe			LSmallToe			LHeel			Neck			Nose			RShoulder			RElbow			RWrist			LShoulder			LElbow			LWrist			
		X1	Y1	Z1	X2	Y2	Z2	X3	Y3	Z3	X4	Y4	Z4	X5	Y5	Z5	X6	Y6	Z6	X7	Y7	Z7	X8	Y8	Z8	X9	Y9	Z9	X10	Y10	Z10	X11	Y11	Z11	X12	Y12	Z12	X13	Y13	Z13	X14	Y14	Z14	X15	Y15	Z15	X16	Y16	Z16	X17	Y17	Z17	X18	Y18	Z18	X19	Y19	Z19	X20	Y20	Z20	X21	Y21	Z21	
12	0.4	-0.1756022990583919	1.8759286449234855	-0.5401109275392509	-0.18755440539073306	1.871553917309562	-0.4778187633437105	-0.17872234156124397	1.7284464477686023	-0.4505817884053435	-0.1772520109463465	1.5892189973709094	-0.43076485794224767							-0.16920631495415484	1.5782184911052506	-0.43422812282961715	-0.15874504247855764	1.879053555911324	-0.5977558369367044	-0.15156749593071522	1.7317877594260351	-0.5870156005590368	-0.14434285531753047	1.5922736920286622	-0.5773589260543042	-0.17669776269890825	1.5453930967406309	-0.6145975088749694	-0.1622164397120337	1.5559313418845713	-0.6299182438319032	-0.14238429980072848	1.5789279244859873	-0.5652174494190798	-0.16318253169568814	2.0450910021367883	-0.5475683998341028	-0.19512273117631823	2.1108706453990647	-0.5713293537188119	-0.17854927047414315	2.042247001272369	-0.4631402593380826	-0.18301234974453878	1.950445623283989	-0.4369018809611175	-0.19727585741646284	1.8728426620400553	-0.41320704239896094	-0.14365035623758	2.0493375811718657	-0.6345401219865274	-0.13404387840099408	1.9630869645070914	-0.6502534847168008	-0.14191665052285132	1.8849766781180266	-0.6502597435576919
13	0.43333333333333335	-0.1759247410615096	1.8734876911787888	-0.539763647754221	-0.1889538710927127	1.8702819906565065	-0.47225498964156465	-0.17890852233528223	1.7270188934866597	-0.45022038672499837	-0.17715204965192524	1.5861071104851914	-0.43049775611844054							-0.16889511434340976	1.5740904202811465	-0.43428108306900715	-0.15897317286900237	1.8752913568280702	-0.5972555055078118	-0.15197814756822278	1.7291363389590382	-0.5862134777736245	-0.14625435713377816	1.5880973501585336	-0.5749263626676334	-0.17546571402171715	1.5467441196242206	-0.6118951052273299	-0.1607602422447314	1.5556196878768545	-0.6274641036002926	-0.14302801179823807	1.576624767863916	-0.5640069115137051	-0.16320540292334185	2.046333766063847	-0.5481360987835111	-0.1942342132458766	2.1107530714524767	-0.5683597069210208	-0.17846766166155964	2.0424780275346444	-0.4631613060110026	-0.18042371815192876	1.9510705921960676	-0.4367411544951433	-0.20131129782973606	1.8785115939417807	-0.4097421426006931	-0.14365195689771665	2.048125324886668	-0.6341196863117975	-1.6125204658525354	1.8796724292479499	0.945339178074322	-0.14214981099771806	1.884187574331125	-0.650384288816841
14	0.4666666666666667	-0.17572942703379263	1.8747621396333667	-0.5399049800952257	-0.18687946013516257	1.8716205583825587	-0.474630709850266	-0.17889191713749647	1.7270484669191515	-0.4501838714917841	-0.17691198137047984	1.584920733356438	-0.4308690562382864							-0.16632656856100347	1.5711639277563747	-0.4367561432853313	-0.15887676420891755	1.8779035112904148	-0.5975753318358081	-0.15172558023556315	1.7293351810897981	-0.586629008716543	-0.1462690289252756	1.5881124664622241	-0.5750210186961406	-0.17665025341876586	1.5455146749535498	-0.6145782381032018	-0.16087058212045494	1.5562247361789274	-0.6275173553916688	-0.14561379005247743	1.5772216488581021	-0.5657062532273042	-0.1631718341097992	2.0450754756714775	-0.5475172141686121	-0.1961616072909041	2.1106950704334144	-0.5661430190303616	-0.17853547939511766	2.0413764738162783	-0.46310455541166184	-0.17955710468483801	1.9482861133769385	-0.4329265239269969	-0.2131956450478093	1.8767517963681857	-0.3964366343927344	-0.14364213884313165	2.0481109718216612	-0.634084401804455	-1.620704520471606	1.880381986979703	0.9604274229197868	-0.13986206740648524	1.8835849831564342	-0.6522546896016093
15	0.5	-0.1734174059579821	1.8734918944801122	-0.5417371627427303	-0.1844989167839029	1.8702431732974036	-0.47649036592717225	-0.17848158742597137	1.7270726485143817	-0.450454796775093	-0.17732467417818537	1.5870556833687244	-0.43052503714824736							-0.16754964717165796	1.572237342489535	-0.4312549635780485	-0.16050924250604812	1.8788234592811557	-0.5954505029155313	-0.15152852689615592	1.7305420370548519	-0.5870632175437256	-0.14711165703544224	1.588059116632603	-0.5782355141182495	-0.178822666884843	1.545575067635137	-0.6124064814372822	-0.1621555565725367	1.5551679168373782	-0.6300289992810367	-0.14382940959918247	1.576060308712057	-0.5673988317690003	-0.16319524583615114	2.0463322729770437	-0.5480066483971098	-0.19637292834751294	2.1104087965425755	-0.5578958817863967	-0.17845727056919256	2.0423991314561323	-0.46304487809718675	-0.17858172039418435	1.9469597634239928	-0.429117286758309	-0.2265373668563018	1.880466465178348	-0.40757464357030493	-0.14366599860067486	2.048096358971624	-0.634016031668342	-1.6101155898634119	1.8792853350553758	0.9413367027891559	-0.13986049607641937	1.8835439880210798	-0.6522556177220448
16	0.5333333333333333	-0.17169184967128473	1.8748348461378612	-0.5355839074161095	-0.18259951791453685	1.871194002727634	-0.47014070369515076	-0.17640764891820618	1.728407368659426	-0.4528869629440858	-0.17732883778377556	1.5868861834111443	-0.4304896894016683							-0.16850925160952762	1.5744395394828974	-0.43475722980340004	-0.15975240458525455	1.8799122227234157	-0.5924474210308106	-0.1544497809612512	1.730543983857673	-0.5879843814327629	-0.14475874829289404	1.5894706764566138	-0.581112001188577	-0.17788392503379735	1.5455118169692776	-0.609215912424908	-0.1620983315850672	1.5550900647581622	-0.6300967871501856	-0.14125617851891584	1.576459325552883	-0.5703415909155349	-0.1623294282169031	2.0462680848984633	-0.5450297229349108	-0.1955179329384671	2.1115208185194527	-0.555263396131361	-0.17753596326358784	2.0436380866964057	-0.46061855569292276	-0.1796230827075036	1.9515835491340465	-0.42484959312320003	-0.23685929645094037	1.8908967455461667	-0.40168378704067154	-0.142886724884098	2.049181777159888	-0.6314579613817348	-0.13087527342472485	1.9627009986881985	-0.6379856798240195	-0.14142819742212345	1.8819756669746963	-0.6466560988216341
17	0.5666666666666667	-0.17186530154325524	1.87745180088155	-0.5360981735179385	-0.18185748322446102	1.8738907235647166	-0.4674982442975898	-0.17580621494971388	1.7284615423589482	-0.4493354088218906	-0.17755520206642952	1.5883765528185247	-0.4301933884037977							-0.16852070228498053	1.577490064394832	-0.43041136281232384	-0.15869975114292761	1.8790818994957033	-0.5976416733611969	-0.15583200856292279	1.7333041974812402	-0.5912891580247474	-0.14318032539547046	1.5897085828913908	-0.5826465508282344	-0.17881457024830197	1.5453998162880869	-0.6124106324053595	-0.16240863955653803	1.5565566769162693	-0.629898764690413	-0.1395485206382958	1.576097747374174	-0.5720841765310436	-0.1623575486055617	2.0462390515624462	-0.5448013288059991	-0.19663543855463564	2.1100231284901767	-0.549377751927014	-0.17751304340283816	2.042179304326778	-0.4598285114600852	-0.18542286643249656	1.957710557280894	-0.41948309270873224	-0.2503901414684607	1.9148759591916455	-0.3990356875127537	-0.14487970051681615	2.050397045471758	-0.6290550069666946	-0.8870311890205675	1.922351078955406	0.18015842206450006	-0.1415399329257125	1.8854993736350676	-0.6486203820722698
18	0.6	-0.16792822688738346	1.8768632808963523	-0.5227728654610109	-0.18058540178385987	1.8718682926808796	-0.4635536824439685	-0.17573525842673424	1.7288169787537226	-0.44905498796751336	-0.17721583617479877	1.5861803332885795	-0.43072044441435414							-0.16752202189178853	1.571901048394799	-0.4311864309755837	-0.15759686313081026	1.8801900878418085	-0.5944395322217201	-0.15752127494394866	1.7333058189412056	-0.5893051709631926	-0.14209422784153605	1.591184845926389	-0.5881449628029795	-0.17805643805094773	1.5457057917514292	-0.6090870051304582	-0.16466215674516055	1.5539907269377218	-0.6272764008697675	-0.1339936232749761	1.576455311397638	-0.5823140419875575	-0.1614658787142901	2.046087542662578	-0.5417597706368196	-0.19772144098647015	2.1087146367295126	-0.5442218749518131	-0.17661346797598187	2.0422074714829113	-0.4573588243690914	-0.1903303759391766	1.9588068658079123	-0.4099169206619979	-0.2532411756261156	1.941231410560764	-0.3901926754681998	-0.1449346139235553	2.049254627568642	-0.6290034148553826	-1.6431871046164104	1.8820011592226134	0.9983025239530195	-0.14165166842930157	1.8890230802954386	-0.6505846653229055
